<?xml version="1.0" encoding="iso-8859-1"?>
<!-- Generator: Adobe Illustrator 19.1.0, SVG Export Plug-In . SVG Version: 6.00 Build 0)  -->
<svg version="1.1" id="Capa_1" xmlns="http://www.w3.org/2000/svg" xmlns:xlink="http://www.w3.org/1999/xlink" x="0px" y="0px"
	 viewBox="0 0 63 63" style="enable-background:new 0 0 63 63;" xml:space="preserve">
<g>
	<g id="group-29svg">
		<path id="path-1_20_" style="fill:#fff;" d="M43.426,47.903c-4.01,0-8.481-1.27-13.257-4.691
			C14.005,31.637,3.035,42.566,2.577,43.037c-0.579,0.593-1.527,0.606-2.12,0.031c-0.594-0.576-0.61-1.522-0.037-2.117
			c0.13-0.134,13.181-13.295,31.495-0.178c16.072,11.511,27.872-4.529,28.367-5.217c0.485-0.674,1.423-0.825,2.093-0.343
			c0.673,0.483,0.826,1.42,0.343,2.093C62.615,37.449,54.926,47.902,43.426,47.903z"/>
		<path id="path-2_20_" style="fill:#fff;" d="M43.426,38.459c-4.01,0-8.481-1.27-13.257-4.691
			C13.939,22.143,3.036,33.117,2.58,33.589c-0.576,0.597-1.524,0.614-2.121,0.039c-0.597-0.575-0.613-1.525-0.039-2.121
			c0.13-0.135,13.181-13.295,31.495-0.178c16.07,11.507,27.872-4.529,28.367-5.218c0.485-0.673,1.423-0.824,2.093-0.343
			c0.673,0.483,0.826,1.421,0.343,2.094C62.615,28.005,54.926,38.458,43.426,38.459z"/>
		<path id="path-3_20_" style="fill:#fff;" d="M43.426,28.07c-4.01,0-8.481-1.27-13.257-4.691
			C14.005,11.804,3.035,22.732,2.577,23.204c-0.579,0.592-1.527,0.606-2.12,0.03c-0.594-0.575-0.61-1.521-0.037-2.116
			c0.13-0.135,13.181-13.295,31.495-0.178c16.072,11.511,27.872-4.529,28.367-5.218c0.485-0.673,1.423-0.825,2.093-0.343
			c0.673,0.484,0.826,1.421,0.343,2.094C62.615,17.616,54.926,28.068,43.426,28.07z"/>
	</g>
</g>
<g>
</g>
<g>
</g>
<g>
</g>
<g>
</g>
<g>
</g>
<g>
</g>
<g>
</g>
<g>
</g>
<g>
</g>
<g>
</g>
<g>
</g>
<g>
</g>
<g>
</g>
<g>
</g>
<g>
</g>
</svg>
